<?xml version="1.0" ?><!DOCTYPE svg  PUBLIC '-//W3C//DTD SVG 1.1//EN'  'http://www.w3.org/Graphics/SVG/1.1/DTD/svg11.dtd'><svg enable-background="new 0 0 512 512" id="Layer_1" version="1.1" viewBox="0 0 512 512" xml:space="preserve" xmlns="http://www.w3.org/2000/svg" xmlns:xlink="http://www.w3.org/1999/xlink"><g><path d="M257.5,5c74,0,148,0,221.9,0C499,5,511,16.9,511,36.3c0,147.1,0,294.3,0,441.4c0,19.2-12,31.3-31.1,31.3   c-148.6,0-297.3,0-445.9,0c-18.8,0-31-12.1-31-30.8c0-147.5,0-295,0-442.4C3,17,15.2,5,34.1,5C108.6,5,183.1,5,257.5,5z M257,19   c-74,0-148,0-222,0c-12.3,0-18,5.7-18,18c0,146.7,0,293.3,0,440c0,12.3,5.7,18,18,18c148,0,296,0,444,0c12.3,0,18-5.7,18-18   c0-146.7,0-293.3,0-440c0-12.3-5.7-18-18-18C405,19,331,19,257,19z"/><path d="M238.3,324.3c-3.2,14.1-6.5,27.9-9.4,41.8c-6.3,29.8-16.8,57.9-33.5,83.6c-3.9,6.1-8,12.1-12.2,17.9   c-0.9,1.2-2.5,1.9-3.8,2.8c-0.9-1.5-2.5-2.8-2.7-4.4c-2.6-20.2-4.9-40.4-3.2-60.7c1.1-13,3.8-25.9,6.2-38.8   c2.3-12.4,4.8-24.7,7.5-37c3.6-16.5,7.4-33,11.1-49.5c2.6-11.5,5.8-22.9,7.3-34.5c0.7-5.4-1.8-11.3-3.1-16.9   c-2.8-12.7-4.2-25.3-2.1-38.5c1.9-12,5.4-23.2,12.5-33c7.8-10.8,18-17.7,32-17.1c12.8,0.6,21.8,8.1,25.9,20   c4.7,13.7,2.5,27.6-0.9,41.2c-5.6,22.1-12.3,44-16.9,66.4c-5.3,26.1,20,48.2,45.8,41.5c17.9-4.6,29.8-16.3,38.8-31.4   c10.4-17.3,16.2-36.3,19.6-56.2c2.9-16.5,4.2-33.1,3.1-49.7c-2-29.3-13.3-53.8-38.7-70.3c-10.8-7-22.6-11.3-35.4-12.7   c-7.9-0.9-15.9-2-23.8-1.7c-36.9,1.6-66.2,17.2-86.9,48.1c-8.4,12.6-13.9,26.4-17,41.3c-3.2,15.4-4.8,30.8-1.2,46   c2.2,9.1,5.9,18.4,11.2,26.1c5.1,7.3,6.4,13.9,4.1,22c-1.3,4.6-2.3,9.3-3.6,13.9c-1.9,6.9-6.4,8.8-12.8,5.7   c-21.2-10.3-32.7-28.4-39.3-50.1c-6.6-21.8-7.4-44.2-3.7-66.6c2.7-16.4,8.3-31.9,16.3-46.5c12.4-22.5,28.9-41.3,50.5-55.5   c12.5-8.2,25.9-14.2,40-18.7c20.4-6.5,41.4-8.3,62.6-7c46.1,2.8,82.6,22.9,109.2,60.8c9.8,13.9,16.5,29.4,20.4,45.8   c4,16.7,4.6,33.9,3.2,51.1c-1.4,15.8-3.5,31.4-7.8,46.6c-9.6,33.4-25.2,62.9-54.3,83.5c-11.8,8.4-24.6,14.9-39.2,16.4   c-10.2,1.1-20.7,2.8-30.6,1.4c-16.3-2.3-30.6-9.7-40.9-23.3c-0.9-1.2-1.8-2.3-2.8-3.4C239.8,324.6,239.4,324.6,238.3,324.3z"/></g></svg>