<?xml version="1.0" encoding="iso-8859-1"?>
<!-- Generator: Adobe Illustrator 19.1.0, SVG Export Plug-In . SVG Version: 6.00 Build 0)  -->
<svg version="1.1" id="Capa_1" xmlns="http://www.w3.org/2000/svg" xmlns:xlink="http://www.w3.org/1999/xlink" x="0px" y="0px"
	 viewBox="0 0 320.731 320.731" style="enable-background:new 0 0 320.731 320.731;" xml:space="preserve">
<g>
	<path d="M221.212,100.101h-37.687V80.994h37.687V43.307h19.113v37.687h37.687v19.107h-37.687v37.693h-19.113V100.101z
		 M258.815,230.026l-161.918,0.129l9.178,30.45c2.886-0.906,5.893-1.517,9.075-1.517c6.401,0,12.327,1.986,17.237,5.347h110.13
		c4.91-3.361,10.842-5.347,17.243-5.347c16.858,0,30.527,13.67,30.527,30.527c0,16.858-13.67,30.527-30.527,30.527
		c-16.864,0-30.527-13.67-30.527-30.527c0-4.396,0.964-8.548,2.635-12.327h-88.819c1.671,3.779,2.635,7.931,2.635,12.327
		c0,16.858-13.67,30.527-30.527,30.527c-16.864,0-30.527-13.67-30.527-30.527c0-8.927,3.895-16.883,10.013-22.468l-61.537-204.2
		L6.453,63.063c-0.006,0-0.019,0-0.026,0c-3.541,0-6.414-2.854-6.427-6.395c-0.013-3.554,2.847-6.44,6.401-6.459l31.466-0.135
		c0.006,0,0.019,0,0.026,0c3.368,0,6.061,2.616,6.324,5.926c0.154,0.315,0.392,0.572,0.495,0.925l9.672,32.115
		c0.437-0.096,0.855-0.27,1.317-0.27h85.188c0.964-48.78,40.868-88.183,89.873-88.183c49.609,0,89.969,40.354,89.969,89.963
		c0,30.765-15.534,57.951-39.152,74.185l-16.17,59.602c-0.129,0.463-0.366,0.855-0.585,1.266
		C263.982,228.156,261.649,230.026,258.815,230.026z M242.08,289.609c0,9.743,7.924,17.674,17.674,17.674
		c9.749,0,17.674-7.931,17.674-17.674c0-9.756-7.924-17.674-17.674-17.674C250.004,271.935,242.08,279.853,242.08,289.609z
		 M97.476,289.609c0,9.743,7.924,17.674,17.674,17.674s17.674-7.931,17.674-17.674c0-9.756-7.924-17.674-17.674-17.674
		S97.476,279.853,97.476,289.609z M153.653,90.544c0,42.526,34.589,77.128,77.109,77.128s77.116-34.596,77.116-77.128
		c0-42.514-34.596-77.109-77.116-77.109S153.653,48.031,153.653,90.544z M254.04,217.185l11.883-43.818
		c-10.81,4.608-22.687,7.166-35.161,7.166c-45.855,0-83.722-34.512-89.211-78.909H58.176l34.853,115.689L254.04,217.185z"/>
</g>
<g>
</g>
<g>
</g>
<g>
</g>
<g>
</g>
<g>
</g>
<g>
</g>
<g>
</g>
<g>
</g>
<g>
</g>
<g>
</g>
<g>
</g>
<g>
</g>
<g>
</g>
<g>
</g>
<g>
</g>
</svg>
